<?xml version="1.0" encoding="utf-8"?>
<!-- Generator: Adobe Illustrator 21.1.0, SVG Export Plug-In . SVG Version: 6.00 Build 0)  -->
<svg version="1.1" id="Layer_1" xmlns="http://www.w3.org/2000/svg" xmlns:xlink="http://www.w3.org/1999/xlink" x="0px" y="0px"
	 viewBox="0 0 83.2 89.1" style="enable-background:new 0 0 83.2 89.1;" xml:space="preserve">
<style type="text/css">
	.st0{display:none;}
	.st1{display:inline;fill:#FFFFFF;stroke:#000000;stroke-width:3;stroke-miterlimit:10;}
	.st2{display:inline;}
	.st3{fill:none;stroke:#000000;stroke-width:3;stroke-miterlimit:10;}
	.st4{fill:#FFFFFF;stroke:#000000;stroke-width:3;stroke-miterlimit:10;}
</style>
<g id="Layer_1_1_" class="st0">
	
		<image style="display:inline;overflow:visible;enable-background:new    ;" width="340" height="270" xlink:href="FC34DFB3.jpeg"  transform="matrix(1 0 0 1 -232.8844 -57.7424)">
	</image>
</g>
<g id="Layer_2" class="st0">
	<path class="st1" d="M-172.1,83c-9.8,8.5-21.3,20.1-16.5,54.3c0.8,6,5.8,7,5.8,1.8s1.5-25.8,3-26.4s-5.8,37.6,0.5,46.7
		c-1.6,2.6-6.4,10.3-1.6,11.3s15.3-0.1,15.3-5s-0.4-19.7,1.7-19c2.1,0.7-0.7,17.3,0,20.5s17.8,6.1,18.3,0.3s-2.6-7.8-1.5-25.8
		s1.5-35,2.3-33.2s-3.3,33.3-0.8,35.5s6.8-4.4,7.5-14.7s3.3-31.5-7.3-42.8C-156.1,75.3-172.1,83-172.1,83z"/>
</g>
<g id="Layer_3" class="st0">
	<path class="st1" d="M-163.4,18.5c-11.4-0.3-21.9,4.5-28.9,15.7s-8.8,26.9-1.3,37c7.4,10.1,15,18.8,31.7,17.2s25.1-7.7,25.7-18.5
		c-2.2-10.8-5-9.5-3.5-15.5s5.3-10.3,5-14.3S-137.7,19.1-163.4,18.5z"/>
	<g id="XMLID_1_" class="st2">
		<g>
			<path d="M-150,35.8c4.2,1.6,6,7,4.1,12.1s-6.9,8-11,6.4c-4.2-1.6-6-7-4.1-12.1C-159.1,37.1-154.2,34.2-150,35.8z"/>
		</g>
		<g>
			<path class="st3" d="M-145.9,47.9c-1.9,5.1-6.9,8-11,6.4c-4.2-1.6-6-7-4.1-12.1s6.9-8,11-6.4S-144,42.8-145.9,47.9z"/>
		</g>
	</g>
	<g id="XMLID_2_" class="st2">
		<g>
			<circle cx="-156" cy="74.9" r="5.6"/>
		</g>
		<g>
			<circle class="st3" cx="-156" cy="74.9" r="5.6"/>
		</g>
	</g>
	<g id="XMLID_3_" class="st2">
		<g>
			<path d="M-180.5,59.1c1.8,0,3.3,1.7,3.3,3.8c0,2.1-1.5,3.8-3.3,3.8s-3.3-1.7-3.3-3.8C-183.7,60.9-182.3,59.1-180.5,59.1z"/>
		</g>
		<g>
			<path class="st3" d="M-177.2,63c0,2.1-1.5,3.8-3.3,3.8s-3.3-1.7-3.3-3.8c0-2.1,1.4-3.8,3.3-3.8C-178.7,59.1-177.2,60.9-177.2,63z
				"/>
		</g>
	</g>
</g>
<g id="Layer_4" class="st0">
	<path class="st1" d="M-93.2,91.3c-5.9,5.4-1.1,28.6,2,29.8c3.1,1.3,7.4,3.1,7-2.5c4,2.7,14.4,6.8,21.3,0.2
		c9.3,5.5,16.4,2.3,16.7-0.8c0.3-3.2,6-18,2.8-23.8s-8.3-13.9-24.8-12C-84.8,84.1-81.5,80.6-93.2,91.3z"/>
	<path class="st1" d="M-46.2,118c0,0,2.6-19.2,0.3-21.5s-6.7-3.4-10.3-2.5c-3.7,0.9-6.7,5-6.7,24.8c-0.7-18.5-1.7-18.7-1.7-18.7
		s-1.4-6.4-10-6.2c-9.5,0.3-10.7,4.1-11.3,7.3c-0.7,3.3-3.1,7.2,1.7,17.3"/>
	<path class="st1" d="M-73.9,126.8"/>
	<g class="st2">
		<g>
			<path d="M-85.7,118.3c0,0.1,0,0.2,0,0.3c0,0.8,0.7,1.5,1.5,1.5s1.5-0.7,1.5-1.5c0-0.1,0-0.2,0-0.3c0-0.8-0.7-1.5-1.5-1.5
				S-85.7,117.5-85.7,118.3L-85.7,118.3z"/>
		</g>
	</g>
	<g class="st2">
		<g>
			<path d="M-81.7,118.8c-0.5-0.4-1-0.9-1.5-1.3c-0.6-0.5-1.5-0.6-2.1,0c-0.5,0.5-0.6,1.6,0,2.1c0.5,0.4,1,0.9,1.5,1.3
				c0.6,0.5,1.5,0.6,2.1,0C-81.1,120.4-81.1,119.3-81.7,118.8L-81.7,118.8z"/>
		</g>
	</g>
	<g class="st2">
		<g>
			<path d="M-64.4,116.6c-0.5,1.3-1.2,2.5-2.1,3.5c-0.7,0.7,0.4,1.8,1.1,1.1c1.1-1.2,2-2.6,2.5-4.2
				C-62.6,116.1-64.1,115.7-64.4,116.6L-64.4,116.6z"/>
		</g>
	</g>
	<g class="st2">
		<g>
			<path d="M-59.5,118.6c-1.3-1-2.4-2.2-3.2-3.6c-0.5-0.8-1.8-0.1-1.3,0.8c1,1.6,2.2,3,3.7,4.2C-59.4,120.5-58.7,119.2-59.5,118.6
				L-59.5,118.6z"/>
		</g>
	</g>
	<g class="st2">
		<g>
			<path d="M-47.4,116.6c-0.6,1.4-1.2,2.8-2,4.1c-0.5,0.8,0.8,1.6,1.3,0.8c0.8-1.5,1.5-3,2.1-4.5C-45.6,116.1-47.1,115.7-47.4,116.6
				L-47.4,116.6z"/>
		</g>
	</g>
</g>
<g id="Layer_5" class="st0">
	<path class="st1" d="M-72.2,12.5c-14.9,0.3-43,3.7-44.2,32.6s13,43.5,47.2,42.2s37.2-22.8,39.8-39S-35.4,11.7-72.2,12.5z"/>
	<g id="XMLID_4_" class="st2">
		<g>
			<path d="M-90.1,61.2c0.8,3.9-0.8,7.5-3.4,8c-2.7,0.5-5.4-2.2-6.2-6c-0.8-3.9,0.7-7.5,3.4-8C-93.7,54.6-90.9,57.3-90.1,61.2z"/>
		</g>
		<g>
			<path class="st3" d="M-90.1,61.2c0.8,3.9-0.8,7.5-3.4,8c-2.7,0.5-5.4-2.2-6.2-6c-0.8-3.9,0.7-7.5,3.4-8
				C-93.7,54.6-90.9,57.3-90.1,61.2z"/>
		</g>
	</g>
	<g id="XMLID_6_" class="st2">
		<g>
			<path d="M-41.9,35c2.3,0.2,4,3.2,3.7,6.7s-2.4,6.2-4.7,6s-4-3.2-3.7-6.7C-46.4,37.5-44.3,34.8-41.9,35z"/>
		</g>
		<g>
			<path class="st3" d="M-38.2,41.7c-0.3,3.5-2.4,6.2-4.7,6s-4-3.2-3.7-6.7s2.4-6.2,4.7-6C-39.6,35.2-37.9,38.2-38.2,41.7z"/>
		</g>
	</g>
	<g id="XMLID_5_" class="st2">
		<g>
			<path d="M-48.4,69.1c0.7,0.7,0.2,2.2-1,3.3c-1.2,1.1-2.7,1.4-3.3,0.6c-0.6-0.7-0.2-2.2,1-3.3C-50.6,68.7-49.1,68.4-48.4,69.1z"/>
		</g>
		<g>
			<path class="st3" d="M-52.8,73c0.6,0.7,2.1,0.4,3.3-0.6c1.2-1.1,1.7-2.5,1-3.3c-0.6-0.7-2.1-0.4-3.3,0.6
				C-53,70.8-53.5,72.3-52.8,73z"/>
		</g>
	</g>
</g>
<g id="Layer_6" class="st0">
	<path class="st1" d="M8.6,107.5C3.7,125.4,8,128.8,10.9,130c2.8,1.2,6.2-22.7,9.6-30.6s-7.7,33.4-6.9,47.6s5.2,16.1,8.6,15.5
		s4.9-1.9,5.5-21.3c0.9,14.3,0.5,20,5.6,20.5s9.8,1.2,10.1-24.1S42,106.8,41,101.1c-0.9-5.8,4.8,25.9,3.6,30
		c3.7,1.9,7.5,1.2,7.5-7.3s-2.2-34.2-8.6-39.3C37.2,79.5,19.4,68.4,8.6,107.5z"/>
</g>
<g id="Layer_7">
	<path class="st4" d="M81.1,28.6c1.9,11-1.2,14.8-2,22.4c-0.8,7.6,2.2,21,0.9,26.9c-1.3,5.8-16,10.7-23,9.5
		C4.1,63.7,3.8,44.2,1.7,31.1s13.4-24.6,39-29C66-2.2,79.1,17.7,81.1,28.6z"/>
	<g id="XMLID_8_">
		<g>
			<path d="M62,20.2c2.3,0,4.2,1.8,4.2,3.8s-1.9,3.7-4.2,3.8c-2.4,0-4.3-1.7-4.3-3.8S59.6,20.2,62,20.2z"/>
		</g>
		<g>
			<path class="st3" d="M62,20.2c2.3,0,4.2,1.8,4.2,3.8s-1.9,3.7-4.2,3.8c-2.4,0-4.3-1.7-4.3-3.8S59.6,20.2,62,20.2z"/>
		</g>
	</g>
	<g id="XMLID_9_">
		<g>
			<path d="M22.7,37.9c2,0.3,3.3,2.4,3,4.8c-0.4,2.3-2.3,4-4.3,3.7s-3.4-2.4-3-4.8C18.7,39.3,20.6,37.6,22.7,37.9z"/>
		</g>
		<g>
			<path class="st3" d="M22.7,37.9c2,0.3,3.3,2.4,3,4.8c-0.4,2.3-2.3,4-4.3,3.7s-3.4-2.4-3-4.8C18.7,39.3,20.6,37.6,22.7,37.9z"/>
		</g>
	</g>
	<g id="XMLID_7_">
		<g>
			<path d="M63,69.9c0,1-1.1,2-2.5,2.1c-1.5,0.1-2.7-0.7-2.8-1.7c0-1,1.1-2,2.5-2.1C61.6,68.1,62.9,68.9,63,69.9z"/>
		</g>
		<g>
			<path class="st3" d="M60.2,68.2c1.5-0.1,2.7,0.7,2.8,1.7c0,1-1.1,2-2.5,2.1c-1.5,0.1-2.7-0.7-2.8-1.7
				C57.6,69.3,58.7,68.3,60.2,68.2z"/>
		</g>
	</g>
</g>
</svg>
